<?xml version="1.0" encoding="utf-8"?>
<!-- Generator: Adobe Illustrator 27.2.0, SVG Export Plug-In . SVG Version: 6.00 Build 0)  -->
<svg version="1.1" id="Layer_1" xmlns="http://www.w3.org/2000/svg" xmlns:xlink="http://www.w3.org/1999/xlink" x="0px" y="0px"
	 viewBox="0 0 411.03 143.21" style="enable-background:new 0 0 411.03 143.21;" xml:space="preserve">
<style type="text/css">
	.st0{fill:#FFFFFF;}
	.st1{fill:#B6D48A;}
	.st2{fill:#528C32;}
	.st3{fill:#7DB565;}
	.st4{fill:#77BCD4;}
	.st5{fill:#D43E30;}
	.st6{font-family:'ArialMT';}
	.st7{font-size:7.6881px;}
	.st8{font-size:13.8386px;}
	.st9{font-size:17.264px;}
	.st10{font-size:11.7163px;}
</style>
<rect x="-0.46" y="-1.04" class="st0" width="412.56" height="143.06"/>
<g>
	<rect x="180.43" y="44.38" class="st1" width="121.74" height="29.28"/>
	<rect x="37.76" y="43.38" class="st1" width="121.74" height="29.94"/>
	<rect x="11.43" y="9.79" class="st2" width="58.48" height="19.8"/>
	<g>
		<rect x="5.71" y="81.63" class="st2" width="279.66" height="48.19"/>
		<rect x="285.37" y="81.63" class="st3" width="102.28" height="48.19"/>
		<rect x="387.63" y="81.63" class="st4" width="4.8" height="48.19"/>
		<rect x="392.43" y="81.63" class="st5" width="12.78" height="48.19"/>
	</g>
	<rect x="21.69" y="44.66" class="st2" width="12.45" height="12.19"/>
	<rect x="163.66" y="44.66" class="st3" width="12.45" height="12.19"/>
	<rect x="21.69" y="61" class="st4" width="12.45" height="12.19"/>
	<rect x="163.66" y="61" class="st5" width="12.45" height="12.19"/>
	<text transform="matrix(1.0213 0 0 1 37.829 53.5128)"><tspan x="0" y="0" class="st0 st6 st7"> Complete (C) and single−co</tspan><tspan x="97.64" y="0" class="st0 st6 st7">p</tspan><tspan x="101.69" y="0" class="st0 st6 st7">y (S)  </tspan></text>
	<text transform="matrix(1.0213 0 0 1 179.7948 53.5128)" class="st0 st6 st7"> Complete (C) and duplicated (D)</text>
	<text transform="matrix(1.0213 0 0 1 37.829 69.8585)"><tspan x="0" y="0" class="st0 st6 st7"> F</tspan><tspan x="6.83" y="0" class="st0 st6 st7">r</tspan><tspan x="9.32" y="0" class="st0 st6 st7">agmented (F)  </tspan></text>
	<text transform="matrix(1.0213 0 0 1 179.7948 69.8585)" class="st0 st6 st7"> Missing (M)</text>
	<text transform="matrix(1.0213 0 0 1 15.2011 24.1368)"><tspan x="0" y="0" class="st0 st6 st8">B</tspan><tspan x="9.09" y="0" class="st0 st6 st8">USCO</tspan></text>
	<text transform="matrix(1.0501 0 0 1 12.6767 122.9386)" class="st0 st6 st9">C:95.6%[S:70.0%,D:25.6%],F:1.2%,M:3.2%</text>
	<text transform="matrix(1.0103 0 0 1 13.4267 96.8019)" class="st0 st6 st10">All (Chr+Scafolds)</text>
</g>
</svg>
