<?xml version="1.0" encoding="utf-8"?>
<!-- Generator: Adobe Illustrator 27.2.0, SVG Export Plug-In . SVG Version: 6.00 Build 0)  -->
<svg version="1.1" id="Layer_1" xmlns="http://www.w3.org/2000/svg" xmlns:xlink="http://www.w3.org/1999/xlink" x="0px" y="0px"
	 viewBox="0 0 541 216.19" style="enable-background:new 0 0 541 216.19;" xml:space="preserve">
<style type="text/css">
	.st0{clip-path:url(#SVGID_00000066512206678142420970000011438137931289207223_);fill:#BC80BD;}
	.st1{clip-path:url(#SVGID_00000066512206678142420970000011438137931289207223_);fill:#FDBF6F;}
	.st2{clip-path:url(#SVGID_00000066512206678142420970000011438137931289207223_);fill:#4DAF4A;}
	.st3{clip-path:url(#SVGID_00000066512206678142420970000011438137931289207223_);fill:#FFD92F;}
	.st4{clip-path:url(#SVGID_00000066512206678142420970000011438137931289207223_);fill:#A6CEE3;}
	.st5{clip-path:url(#SVGID_00000066512206678142420970000011438137931289207223_);fill:#FB9A99;}
	.st6{clip-path:url(#SVGID_00000066512206678142420970000011438137931289207223_);fill:#F2F2F2;}
	.st7{clip-path:url(#SVGID_00000066512206678142420970000011438137931289207223_);fill:#FFFF99;}
	.st8{clip-path:url(#SVGID_00000066512206678142420970000011438137931289207223_);fill:#377EB8;}
	.st9{clip-path:url(#SVGID_00000066512206678142420970000011438137931289207223_);fill:#66A61E;}
	.st10{clip-path:url(#SVGID_00000066512206678142420970000011438137931289207223_);fill:#D5D5D3;}
	
		.st11{clip-path:url(#SVGID_00000072253026311046305230000007138146195385794745_);fill:none;stroke:#000000;stroke-width:0.21;stroke-linejoin:round;stroke-miterlimit:10;}
	.st12{fill:none;stroke:#222222;stroke-width:1.07;stroke-linejoin:round;stroke-miterlimit:10;}
	.st13{fill:#4D4D4D;}
	.st14{font-family:'Helvetica';}
	.st15{font-size:9px;}
	
		.st16{clip-path:url(#SVGID_00000011029670516573287100000015188583322391799994_);fill:none;stroke:#000000;stroke-width:1.07;stroke-linejoin:round;stroke-miterlimit:10;}
	.st17{font-size:11px;}
	.st18{fill:#D5D5D3;}
	.st19{fill:#66A61E;}
	.st20{fill:#377EB8;}
	.st21{fill:#FFFF99;}
	.st22{fill:#F2F2F2;}
	.st23{fill:#FB9A99;}
	.st24{fill:#A6CEE3;}
	.st25{fill:#FFD92F;}
	.st26{fill:#4DAF4A;}
	.st27{fill:#FDBF6F;}
	.st28{fill:#BC80BD;}
	.st29{font-size:12px;}
	.st30{font-family:'Helvetica-Oblique';}
</style>
<g>
	<defs>
		<rect id="SVGID_1_" y="-166.57" width="541.5" height="346.5"/>
	</defs>
	<clipPath id="SVGID_00000042730540553387206310000016426602574686908603_">
		<use xlink:href="#SVGID_1_"  style="overflow:visible;"/>
	</clipPath>
</g>
<g>
	<defs>
		<rect id="SVGID_00000052806074978033035630000017232378442968492189_" x="16.82" y="-161.09" width="405.15" height="341.02"/>
	</defs>
	<clipPath id="SVGID_00000035504353841830851180000009141550593420030372_">
		<use xlink:href="#SVGID_00000052806074978033035630000017232378442968492189_"  style="overflow:visible;"/>
	</clipPath>
	
		<rect x="35.23" y="83.14" style="clip-path:url(#SVGID_00000035504353841830851180000009141550593420030372_);fill:#BC80BD;" width="90.83" height="44.4"/>
	
		<rect x="126.06" y="83.14" style="clip-path:url(#SVGID_00000035504353841830851180000009141550593420030372_);fill:#FDBF6F;" width="68.91" height="44.4"/>
	
		<rect x="194.97" y="83.14" style="clip-path:url(#SVGID_00000035504353841830851180000009141550593420030372_);fill:#4DAF4A;" width="28.4" height="44.4"/>
	
		<rect x="223.37" y="83.14" style="clip-path:url(#SVGID_00000035504353841830851180000009141550593420030372_);fill:#FFD92F;" width="20" height="44.4"/>
	
		<rect x="243.37" y="83.14" style="clip-path:url(#SVGID_00000035504353841830851180000009141550593420030372_);fill:#A6CEE3;" width="1.88" height="44.4"/>
	
		<rect x="245.25" y="83.14" style="clip-path:url(#SVGID_00000035504353841830851180000009141550593420030372_);fill:#FB9A99;" width="1.69" height="44.4"/>
	
		<rect x="246.94" y="83.14" style="clip-path:url(#SVGID_00000035504353841830851180000009141550593420030372_);fill:#F2F2F2;" width="1.18" height="44.4"/>
	
		<rect x="248.12" y="83.14" style="clip-path:url(#SVGID_00000035504353841830851180000009141550593420030372_);fill:#FFFF99;" width="0.48" height="44.4"/>
	
		<rect x="248.6" y="83.14" style="clip-path:url(#SVGID_00000035504353841830851180000009141550593420030372_);fill:#377EB8;" width="0.22" height="44.4"/>
	
		<rect x="248.82" y="83.14" style="clip-path:url(#SVGID_00000035504353841830851180000009141550593420030372_);fill:#66A61E;" width="0.07" height="44.4"/>
	
		<rect x="248.9" y="83.14" style="clip-path:url(#SVGID_00000035504353841830851180000009141550593420030372_);fill:#D5D5D3;" width="154.66" height="44.4"/>
</g>
<g>
	<defs>
		<rect id="SVGID_00000019649557927666614250000003515618881030427533_" x="16.82" y="-161.09" width="405.15" height="341.02"/>
	</defs>
	<clipPath id="SVGID_00000081617037682315293510000000180623424657451400_">
		<use xlink:href="#SVGID_00000019649557927666614250000003515618881030427533_"  style="overflow:visible;"/>
	</clipPath>
	
		<line style="clip-path:url(#SVGID_00000081617037682315293510000000180623424657451400_);fill:none;stroke:#000000;stroke-width:0.21;stroke-linejoin:round;stroke-miterlimit:10;" x1="16.82" y1="127.54" x2="421.97" y2="127.54"/>
</g>
<g>
	<defs>
		<rect id="SVGID_00000155835934383350838850000002077258982876196753_" x="16.82" y="-161.09" width="405.15" height="341.02"/>
	</defs>
	<clipPath id="SVGID_00000121239241305490214680000003411144315342645160_">
		<use xlink:href="#SVGID_00000155835934383350838850000002077258982876196753_"  style="overflow:visible;"/>
	</clipPath>
</g>
<g>
	<defs>
		<rect id="SVGID_00000120559436798695586980000012600096976403154338_" x="16.82" y="-161.09" width="405.15" height="341.02"/>
	</defs>
	<clipPath id="SVGID_00000053504058044649713810000004278281279750869947_">
		<use xlink:href="#SVGID_00000120559436798695586980000012600096976403154338_"  style="overflow:visible;"/>
	</clipPath>
</g>
<line class="st12" x1="35.23" y1="138.88" x2="35.23" y2="127.54"/>
<line class="st12" x1="127.31" y1="138.88" x2="127.31" y2="127.54"/>
<line class="st12" x1="219.39" y1="138.88" x2="219.39" y2="127.54"/>
<line class="st12" x1="311.47" y1="138.88" x2="311.47" y2="127.54"/>
<line class="st12" x1="403.55" y1="138.88" x2="403.55" y2="127.54"/>
<g>
	<defs>
		<rect id="SVGID_00000029747460653311622620000000752820149350435994_" x="16.82" y="-161.09" width="405.15" height="341.02"/>
	</defs>
	<clipPath id="SVGID_00000013878586209604590480000004422058541911588019_">
		<use xlink:href="#SVGID_00000029747460653311622620000000752820149350435994_"  style="overflow:visible;"/>
	</clipPath>
</g>
<text transform="matrix(1 0 0 1 32.73 147.5305)" class="st13 st14 st15">0</text>
<text transform="matrix(1 0 0 1 122.3101 147.5305)" class="st13 st14 st15">25</text>
<text transform="matrix(1 0 0 1 214.3901 147.5305)" class="st13 st14 st15">50</text>
<text transform="matrix(1 0 0 1 306.4697 147.5305)" class="st13 st14 st15">75</text>
<text transform="matrix(1 0 0 1 396.0498 147.5305)" class="st13 st14 st15">100</text>
<g>
	<defs>
		<rect id="SVGID_00000118383387036645719740000007378801577703145655_" x="16.82" y="-161.09" width="405.15" height="341.02"/>
	</defs>
	<clipPath id="SVGID_00000057866466531720779360000013687701733889326512_">
		<use xlink:href="#SVGID_00000118383387036645719740000007378801577703145655_"  style="overflow:visible;"/>
	</clipPath>
</g>
<g>
	<defs>
		<rect id="SVGID_00000057145148730363534990000006452811855807763356_" x="16.82" y="-161.09" width="405.15" height="341.02"/>
	</defs>
	<clipPath id="SVGID_00000057845134138282435890000009842714507203463576_">
		<use xlink:href="#SVGID_00000057145148730363534990000006452811855807763356_"  style="overflow:visible;"/>
	</clipPath>
</g>
<g>
	<defs>
		<rect id="SVGID_00000123412572791604470550000014185860046432840329_" x="16.82" y="-161.09" width="405.15" height="341.02"/>
	</defs>
	<clipPath id="SVGID_00000060027670376608623260000009083580226466208164_">
		<use xlink:href="#SVGID_00000123412572791604470550000014185860046432840329_"  style="overflow:visible;"/>
	</clipPath>
</g>
<g>
	<defs>
		<rect id="SVGID_00000063600307087945104330000011325526256324397746_" x="16.82" y="-161.09" width="405.15" height="341.02"/>
	</defs>
	<clipPath id="SVGID_00000183927315903275198720000001956396202617126325_">
		<use xlink:href="#SVGID_00000063600307087945104330000011325526256324397746_"  style="overflow:visible;"/>
	</clipPath>
	
		<line style="clip-path:url(#SVGID_00000183927315903275198720000001956396202617126325_);fill:none;stroke:#000000;stroke-width:1.07;stroke-linejoin:round;stroke-miterlimit:10;" x1="16.82" y1="127.54" x2="421.97" y2="127.54"/>
</g>
<text transform="matrix(1 0 0 1 200.7202 171.8312)"><tspan x="0" y="0" class="st14 st17">P</tspan><tspan x="6.79" y="0" class="st14 st17">ercent</tspan></text>
<text transform="matrix(1 0 0 1 438.4102 13.5109)" class="st14 st17">Repeats</text>
<rect x="439.12" y="19.19" class="st18" width="15.86" height="15.86"/>
<rect x="439.12" y="36.47" class="st19" width="15.86" height="15.86"/>
<rect x="439.12" y="53.75" class="st20" width="15.86" height="15.86"/>
<rect x="439.12" y="71.03" class="st21" width="15.86" height="15.86"/>
<rect x="439.12" y="88.31" class="st22" width="15.86" height="15.86"/>
<rect x="439.12" y="105.59" class="st23" width="15.86" height="15.86"/>
<rect x="439.12" y="122.87" class="st24" width="15.86" height="15.86"/>
<rect x="439.12" y="140.15" class="st25" width="15.86" height="15.86"/>
<rect x="439.12" y="157.43" class="st26" width="15.86" height="15.86"/>
<rect x="439.12" y="174.71" class="st27" width="15.86" height="15.86"/>
<rect x="439.12" y="191.99" class="st28" width="15.86" height="15.86"/>
<text transform="matrix(1 0 0 1 461.1699 30.3508)" class="st14 st15">Non−repeat</text>
<text transform="matrix(1 0 0 1 461.1699 47.6311)" class="st14 st15">Small RNA</text>
<text transform="matrix(1 0 0 1 461.1699 64.9113)" class="st14 st15">Satellites</text>
<text transform="matrix(1 0 0 1 461.1699 82.1906)"><tspan x="0" y="0" class="st14 st15">L</tspan><tspan x="5.01" y="0" class="st14 st15">o</tspan><tspan x="9.88" y="0" class="st14 st15">w compl</tspan><tspan x="42.88" y="0" class="st14 st15">e</tspan><tspan x="47.62" y="0" class="st14 st15">xity</tspan></text>
<text transform="matrix(1 0 0 1 461.1699 99.4709)" class="st14 st15">SINEs</text>
<text transform="matrix(1 0 0 1 461.1699 116.7512)" class="st14 st15">Rolling−circles</text>
<text transform="matrix(1 0 0 1 461.1699 134.0305)" class="st14 st15">Simple Repeats</text>
<text transform="matrix(1 0 0 1 461.1699 151.3107)" class="st14 st15">Unclassified</text>
<text transform="matrix(1 0 0 1 461.1699 168.591)" class="st14 st15">LINEs</text>
<text transform="matrix(1 0 0 1 461.1699 185.8713)"><tspan x="0" y="0" class="st14 st15">DNA t</tspan><tspan x="24" y="0" class="st14 st15">r</tspan><tspan x="26.91" y="0" class="st14 st15">ansposons</tspan></text>
<text transform="matrix(1 0 0 1 461.1699 203.1506)"><tspan x="0" y="0" class="st14 st15">L</tspan><tspan x="4.02" y="0" class="st14 st15">TR elements</tspan></text>
<text transform="matrix(1 0 0 1 6.7928 15.7718)"><tspan x="0" y="0" class="st14 st29">Repetitive Elements in the </tspan><tspan x="142.74" y="0" class="st30 st29">Kalanchoe blossfeldiana</tspan><tspan x="272.84" y="0" class="st14 st29"> genome  </tspan></text>
<text transform="matrix(1 0 0 1 288.4146 109.274)" class="st14 st29">Non-repeat</text>
</svg>
