<?xml version="1.0" encoding="utf-8"?>
<!-- Generator: Adobe Illustrator 27.2.0, SVG Export Plug-In . SVG Version: 6.00 Build 0)  -->
<svg version="1.1" id="Layer_1" xmlns="http://www.w3.org/2000/svg" xmlns:xlink="http://www.w3.org/1999/xlink" x="0px" y="0px"
	 viewBox="0 0 541 216.19" style="enable-background:new 0 0 541 216.19;" xml:space="preserve">
<style type="text/css">
	.st0{fill:#FFFFFF;stroke:#000000;stroke-width:0.21;stroke-linejoin:round;stroke-miterlimit:10;}
	.st1{clip-path:url(#SVGID_00000035513393268357897220000007388500005671472041_);fill:#BC80BD;}
	.st2{clip-path:url(#SVGID_00000035513393268357897220000007388500005671472041_);fill:#FDBF6F;}
	.st3{clip-path:url(#SVGID_00000035513393268357897220000007388500005671472041_);fill:#4DAF4A;}
	.st4{clip-path:url(#SVGID_00000035513393268357897220000007388500005671472041_);fill:#FFD92F;}
	.st5{clip-path:url(#SVGID_00000035513393268357897220000007388500005671472041_);fill:#A6CEE3;}
	.st6{clip-path:url(#SVGID_00000035513393268357897220000007388500005671472041_);fill:#FB9A99;}
	.st7{clip-path:url(#SVGID_00000035513393268357897220000007388500005671472041_);fill:#F2F2F2;}
	.st8{clip-path:url(#SVGID_00000035513393268357897220000007388500005671472041_);fill:#FFFF99;}
	.st9{clip-path:url(#SVGID_00000035513393268357897220000007388500005671472041_);fill:#377EB8;}
	.st10{clip-path:url(#SVGID_00000035513393268357897220000007388500005671472041_);fill:#66A61E;}
	.st11{clip-path:url(#SVGID_00000035513393268357897220000007388500005671472041_);fill:#D5D5D3;}
	
		.st12{clip-path:url(#SVGID_00000122693227708324576930000016188490872729144963_);fill:none;stroke:#000000;stroke-width:0.21;stroke-linejoin:round;stroke-miterlimit:10;}
	.st13{fill:none;stroke:#222222;stroke-width:1.07;stroke-linejoin:round;stroke-miterlimit:10;}
	.st14{fill:#4D4D4D;}
	.st15{font-family:'Helvetica';}
	.st16{font-size:9px;}
	
		.st17{clip-path:url(#SVGID_00000151532985035901516630000002587355550613104059_);fill:none;stroke:#000000;stroke-width:1.07;stroke-linejoin:round;stroke-miterlimit:10;}
	.st18{font-size:11px;}
	.st19{fill:#D5D5D3;}
	.st20{fill:#66A61E;}
	.st21{fill:#377EB8;}
	.st22{fill:#FFFF99;}
	.st23{fill:#F2F2F2;}
	.st24{fill:#FB9A99;}
	.st25{fill:#A6CEE3;}
	.st26{fill:#FFD92F;}
	.st27{fill:#4DAF4A;}
	.st28{fill:#FDBF6F;}
	.st29{fill:#BC80BD;}
	.st30{font-size:12px;}
	.st31{font-family:'Helvetica-Oblique';}
</style>
<rect x="-0.74" y="-1.37" class="st0" width="543.05" height="218.17"/>
<g>
	<defs>
		<rect id="SVGID_1_" y="-166.57" width="541.5" height="346.5"/>
	</defs>
	<clipPath id="SVGID_00000050640990083520480010000015136431686665433739_">
		<use xlink:href="#SVGID_1_"  style="overflow:visible;"/>
	</clipPath>
</g>
<g>
	<defs>
		<rect id="SVGID_00000152987188018133452480000005872155593642076572_" x="16.82" y="-161.09" width="405.15" height="341.02"/>
	</defs>
	<clipPath id="SVGID_00000114070860595686132450000011485719050273671858_">
		<use xlink:href="#SVGID_00000152987188018133452480000005872155593642076572_"  style="overflow:visible;"/>
	</clipPath>
	
		<rect x="35.23" y="83.14" style="clip-path:url(#SVGID_00000114070860595686132450000011485719050273671858_);fill:#BC80BD;" width="90.83" height="44.4"/>
	
		<rect x="126.06" y="83.14" style="clip-path:url(#SVGID_00000114070860595686132450000011485719050273671858_);fill:#FDBF6F;" width="68.91" height="44.4"/>
	
		<rect x="194.97" y="83.14" style="clip-path:url(#SVGID_00000114070860595686132450000011485719050273671858_);fill:#4DAF4A;" width="28.4" height="44.4"/>
	
		<rect x="223.37" y="83.14" style="clip-path:url(#SVGID_00000114070860595686132450000011485719050273671858_);fill:#FFD92F;" width="20" height="44.4"/>
	
		<rect x="243.37" y="83.14" style="clip-path:url(#SVGID_00000114070860595686132450000011485719050273671858_);fill:#A6CEE3;" width="1.88" height="44.4"/>
	
		<rect x="245.25" y="83.14" style="clip-path:url(#SVGID_00000114070860595686132450000011485719050273671858_);fill:#FB9A99;" width="1.69" height="44.4"/>
	
		<rect x="246.94" y="83.14" style="clip-path:url(#SVGID_00000114070860595686132450000011485719050273671858_);fill:#F2F2F2;" width="1.18" height="44.4"/>
	
		<rect x="248.12" y="83.14" style="clip-path:url(#SVGID_00000114070860595686132450000011485719050273671858_);fill:#FFFF99;" width="0.48" height="44.4"/>
	
		<rect x="248.6" y="83.14" style="clip-path:url(#SVGID_00000114070860595686132450000011485719050273671858_);fill:#377EB8;" width="0.22" height="44.4"/>
	
		<rect x="248.82" y="83.14" style="clip-path:url(#SVGID_00000114070860595686132450000011485719050273671858_);fill:#66A61E;" width="0.07" height="44.4"/>
	
		<rect x="248.9" y="83.14" style="clip-path:url(#SVGID_00000114070860595686132450000011485719050273671858_);fill:#D5D5D3;" width="154.66" height="44.4"/>
</g>
<g>
	<defs>
		<rect id="SVGID_00000148650842089198541950000005057048448545408925_" x="16.82" y="-161.09" width="405.15" height="341.02"/>
	</defs>
	<clipPath id="SVGID_00000026871722613794276300000011977133414569872798_">
		<use xlink:href="#SVGID_00000148650842089198541950000005057048448545408925_"  style="overflow:visible;"/>
	</clipPath>
	
		<line style="clip-path:url(#SVGID_00000026871722613794276300000011977133414569872798_);fill:none;stroke:#000000;stroke-width:0.21;stroke-linejoin:round;stroke-miterlimit:10;" x1="16.82" y1="127.54" x2="421.97" y2="127.54"/>
</g>
<g>
	<defs>
		<rect id="SVGID_00000170999053956900001550000001690018733177631892_" x="16.82" y="-161.09" width="405.15" height="341.02"/>
	</defs>
	<clipPath id="SVGID_00000028300407615244749740000001291366909819565184_">
		<use xlink:href="#SVGID_00000170999053956900001550000001690018733177631892_"  style="overflow:visible;"/>
	</clipPath>
</g>
<g>
	<defs>
		<rect id="SVGID_00000122722519121908930710000003365032995318940075_" x="16.82" y="-161.09" width="405.15" height="341.02"/>
	</defs>
	<clipPath id="SVGID_00000098899313891471409620000015438946293756600502_">
		<use xlink:href="#SVGID_00000122722519121908930710000003365032995318940075_"  style="overflow:visible;"/>
	</clipPath>
</g>
<line class="st13" x1="35.23" y1="138.88" x2="35.23" y2="127.54"/>
<line class="st13" x1="127.31" y1="138.88" x2="127.31" y2="127.54"/>
<line class="st13" x1="219.39" y1="138.88" x2="219.39" y2="127.54"/>
<line class="st13" x1="311.47" y1="138.88" x2="311.47" y2="127.54"/>
<line class="st13" x1="403.55" y1="138.88" x2="403.55" y2="127.54"/>
<g>
	<defs>
		<rect id="SVGID_00000123411580522009511620000018020521779440541365_" x="16.82" y="-161.09" width="405.15" height="341.02"/>
	</defs>
	<clipPath id="SVGID_00000035491868393723683490000006169592534257619901_">
		<use xlink:href="#SVGID_00000123411580522009511620000018020521779440541365_"  style="overflow:visible;"/>
	</clipPath>
</g>
<text transform="matrix(1 0 0 1 32.73 147.5305)" class="st14 st15 st16">0</text>
<text transform="matrix(1 0 0 1 122.3101 147.5305)" class="st14 st15 st16">25</text>
<text transform="matrix(1 0 0 1 214.3901 147.5305)" class="st14 st15 st16">50</text>
<text transform="matrix(1 0 0 1 306.4697 147.5305)" class="st14 st15 st16">75</text>
<text transform="matrix(1 0 0 1 396.0498 147.5305)" class="st14 st15 st16">100</text>
<g>
	<defs>
		<rect id="SVGID_00000165226382694288292980000005379362827083797170_" x="16.82" y="-161.09" width="405.15" height="341.02"/>
	</defs>
	<clipPath id="SVGID_00000027570303814592859870000014899297620550705829_">
		<use xlink:href="#SVGID_00000165226382694288292980000005379362827083797170_"  style="overflow:visible;"/>
	</clipPath>
</g>
<g>
	<defs>
		<rect id="SVGID_00000062885349271558686530000006804007337393525941_" x="16.82" y="-161.09" width="405.15" height="341.02"/>
	</defs>
	<clipPath id="SVGID_00000145744276137587254020000018223201247966568368_">
		<use xlink:href="#SVGID_00000062885349271558686530000006804007337393525941_"  style="overflow:visible;"/>
	</clipPath>
</g>
<g>
	<defs>
		<rect id="SVGID_00000080911666064597677090000011325822915185939588_" x="16.82" y="-161.09" width="405.15" height="341.02"/>
	</defs>
	<clipPath id="SVGID_00000015332255348269272630000002190222189669317006_">
		<use xlink:href="#SVGID_00000080911666064597677090000011325822915185939588_"  style="overflow:visible;"/>
	</clipPath>
</g>
<g>
	<defs>
		<rect id="SVGID_00000158009384392560482810000001803212284912351912_" x="16.82" y="-161.09" width="405.15" height="341.02"/>
	</defs>
	<clipPath id="SVGID_00000013900562204539188940000000502251080994868610_">
		<use xlink:href="#SVGID_00000158009384392560482810000001803212284912351912_"  style="overflow:visible;"/>
	</clipPath>
	
		<line style="clip-path:url(#SVGID_00000013900562204539188940000000502251080994868610_);fill:none;stroke:#000000;stroke-width:1.07;stroke-linejoin:round;stroke-miterlimit:10;" x1="16.82" y1="127.54" x2="421.97" y2="127.54"/>
</g>
<text transform="matrix(1 0 0 1 200.7202 171.8312)"><tspan x="0" y="0" class="st15 st18">P</tspan><tspan x="6.79" y="0" class="st15 st18">ercent</tspan></text>
<text transform="matrix(1 0 0 1 438.4102 13.5109)" class="st15 st18">Repeats</text>
<rect x="439.12" y="19.19" class="st19" width="15.86" height="15.86"/>
<rect x="439.12" y="36.47" class="st20" width="15.86" height="15.86"/>
<rect x="439.12" y="53.75" class="st21" width="15.86" height="15.86"/>
<rect x="439.12" y="71.03" class="st22" width="15.86" height="15.86"/>
<rect x="439.12" y="88.31" class="st23" width="15.86" height="15.86"/>
<rect x="439.12" y="105.59" class="st24" width="15.86" height="15.86"/>
<rect x="439.12" y="122.87" class="st25" width="15.86" height="15.86"/>
<rect x="439.12" y="140.15" class="st26" width="15.86" height="15.86"/>
<rect x="439.12" y="157.43" class="st27" width="15.86" height="15.86"/>
<rect x="439.12" y="174.71" class="st28" width="15.86" height="15.86"/>
<rect x="439.12" y="191.99" class="st29" width="15.86" height="15.86"/>
<text transform="matrix(1 0 0 1 461.1699 30.3508)" class="st15 st16">Non−repeat</text>
<text transform="matrix(1 0 0 1 461.1699 47.6311)" class="st15 st16">Small RNA</text>
<text transform="matrix(1 0 0 1 461.1699 64.9113)" class="st15 st16">Satellites</text>
<text transform="matrix(1 0 0 1 461.1699 82.1906)"><tspan x="0" y="0" class="st15 st16">L</tspan><tspan x="5.01" y="0" class="st15 st16">o</tspan><tspan x="9.88" y="0" class="st15 st16">w compl</tspan><tspan x="42.88" y="0" class="st15 st16">e</tspan><tspan x="47.62" y="0" class="st15 st16">xity</tspan></text>
<text transform="matrix(1 0 0 1 461.1699 99.4709)" class="st15 st16">SINEs</text>
<text transform="matrix(1 0 0 1 461.1699 116.7512)" class="st15 st16">Rolling−circles</text>
<text transform="matrix(1 0 0 1 461.1699 134.0305)" class="st15 st16">Simple Repeats</text>
<text transform="matrix(1 0 0 1 461.1699 151.3107)" class="st15 st16">Unclassified</text>
<text transform="matrix(1 0 0 1 461.1699 168.591)" class="st15 st16">LINEs</text>
<text transform="matrix(1 0 0 1 461.1699 185.8713)"><tspan x="0" y="0" class="st15 st16">DNA t</tspan><tspan x="24" y="0" class="st15 st16">r</tspan><tspan x="26.91" y="0" class="st15 st16">ansposons</tspan></text>
<text transform="matrix(1 0 0 1 461.1699 203.1506)"><tspan x="0" y="0" class="st15 st16">L</tspan><tspan x="4.02" y="0" class="st15 st16">TR elements</tspan></text>
<text transform="matrix(1 0 0 1 6.7928 15.7718)"><tspan x="0" y="0" class="st15 st30">Repetitive Elements in the </tspan><tspan x="142.74" y="0" class="st31 st30">Kalanchoe blossfeldiana</tspan><tspan x="272.84" y="0" class="st15 st30"> genome  </tspan></text>
<text transform="matrix(1 0 0 1 288.4146 109.274)" class="st15 st30">Non-repeat</text>
</svg>
